<svg width="18" height="20" fill="none" xmlns="http://www.w3.org/2000/svg"><g filter="url(#filter0_d)" fill="#40F272"><path d="M0 6h3v3H0zM3 9h3v3H3zM3 12h3v3H3zM6 12h3v3H6zM9 9h3v3H9zM9 12h3v3H9zM6 15h3v3H6zM9 6h3v3H9zM12 6h3v3h-3zM12 3h3v3h-3zM12 0h3v3h-3zM15 0h3v3h-3z"/></g><defs><filter id="filter0_d" x="0" y="0" width="18" height="20" filterUnits="userSpaceOnUse" color-interpolation-filters="sRGB"><feFlood flood-opacity="0" result="BackgroundImageFix"/><feColorMatrix in="SourceAlpha" values="0 0 0 0 0 0 0 0 0 0 0 0 0 0 0 0 0 0 127 0"/><feOffset dy="2"/><feColorMatrix values="0 0 0 0 0.08625 0 0 0 0 0.45 0 0 0 0 0.1881 0 0 0 1 0"/><feBlend in2="BackgroundImageFix" result="effect1_dropShadow"/><feBlend in="SourceGraphic" in2="effect1_dropShadow" result="shape"/></filter></defs></svg>